# xmcd
#
# Track frame offsets: 
#        150
#        19742
#        42488
#        58405
#        76728
#        96559
#        122778
#        144998
#        166644
#        193915
#        226813
#        267202
#
# Disc length: 3837 seconds
#
# Revision: 0
# Processed by: cddbd v1.5.2PL0 Copyright (c) Steve Scherf et al.
# Submitted via: ExactAudioCopy v0.99pb4
#
DISCID=a10efb0c
DTITLE=Wes Jeans - Forest Of The Pine
DYEAR=2006
DGENRE=Blues Rock
TTITLE0=Forest of the Pine
TTITLE1=Move On
TTITLE2=Comin Home
TTITLE3=Jumpin at Shadows
TTITLE4=Dallas
TTITLE5=Somebody
TTITLE6=Here by Me
TTITLE7=Let Me Know
TTITLE8=Back to Bed
TTITLE9=Boomerang Song
TTITLE10=Champagne and Reefer
TTITLE11=Bonus Track
EXTD=
EXTT0=
EXTT1=
EXTT2=
EXTT3=
EXTT4=
EXTT5=
EXTT6=
EXTT7=
EXTT8=
EXTT9=
EXTT10=
EXTT11=
PLAYORDER=
